<svg viewBox="0 0 2048 1024" width="2048" height="1024" xmlns="http://www.w3.org/2000/svg"><defs><linearGradient id="base" x1="0" y1="0" x2="0" y2="1"><stop offset="0%" stop-color="#d98a4e"/><stop offset="45%" stop-color="#b8552a"/><stop offset="100%" stop-color="#8a3417"/></linearGradient></defs><rect width="2048" height="1024" fill="url(#base)"/><ellipse cx="1286.8" cy="615.5" rx="104.5" ry="46.0" fill="#5a2f1c" opacity="0.26" transform="rotate(128 1286.8 615.5)"/><ellipse cx="1240.6" cy="583.6" rx="73.5" ry="47.5" fill="#5a2f1c" opacity="0.37" transform="rotate(31 1240.6 583.6)"/><ellipse cx="1330.1" cy="509.3" rx="112.2" ry="89.6" fill="#5a2f1c" opacity="0.25" transform="rotate(76 1330.1 509.3)"/><ellipse cx="1327.1" cy="562.2" rx="127.8" ry="74.7" fill="#5a2f1c" opacity="0.28" transform="rotate(168 1327.1 562.2)"/><ellipse cx="1134.4" cy="690.5" rx="110.4" ry="83.4" fill="#5a2f1c" opacity="0.40" transform="rotate(163 1134.4 690.5)"/><ellipse cx="1100.8" cy="750.5" rx="106.1" ry="79.5" fill="#5a2f1c" opacity="0.33" transform="rotate(71 1100.8 750.5)"/><ellipse cx="1146.9" cy="750.6" rx="104.5" ry="64.2" fill="#5a2f1c" opacity="0.33" transform="rotate(24 1146.9 750.6)"/><ellipse cx="1136.9" cy="746.1" rx="122.5" ry="96.6" fill="#5a2f1c" opacity="0.26" transform="rotate(114 1136.9 746.1)"/><ellipse cx="1172.9" cy="707.2" rx="50.6" ry="23.9" fill="#5a2f1c" opacity="0.28" transform="rotate(46 1172.9 707.2)"/><ellipse cx="1134.7" cy="772.8" rx="78.1" ry="47.5" fill="#5a2f1c" opacity="0.36" transform="rotate(55 1134.7 772.8)"/><ellipse cx="1735.7" cy="278.9" rx="101.4" ry="62.0" fill="#5a2f1c" opacity="0.40" transform="rotate(9 1735.7 278.9)"/><ellipse cx="1621.9" cy="347.4" rx="67.6" ry="51.4" fill="#5a2f1c" opacity="0.40" transform="rotate(82 1621.9 347.4)"/><ellipse cx="1746.8" cy="346.9" rx="60.9" ry="32.1" fill="#5a2f1c" opacity="0.38" transform="rotate(25 1746.8 346.9)"/><ellipse cx="-301.2" cy="346.9" rx="60.9" ry="32.1" fill="#5a2f1c" opacity="0.38" transform="rotate(25 -301.2 346.9)"/><ellipse cx="1422.7" cy="576.2" rx="74.7" ry="55.8" fill="#5a2f1c" opacity="0.37" transform="rotate(54 1422.7 576.2)"/><ellipse cx="1278.1" cy="537.8" rx="94.9" ry="64.5" fill="#5a2f1c" opacity="0.29" transform="rotate(127 1278.1 537.8)"/><ellipse cx="1404.4" cy="555.4" rx="60.6" ry="39.5" fill="#5a2f1c" opacity="0.35" transform="rotate(40 1404.4 555.4)"/><ellipse cx="1284.1" cy="580.0" rx="62.4" ry="26.1" fill="#5a2f1c" opacity="0.25" transform="rotate(95 1284.1 580.0)"/><ellipse cx="1269.5" cy="508.2" rx="115.2" ry="76.2" fill="#5a2f1c" opacity="0.36" transform="rotate(141 1269.5 508.2)"/><ellipse cx="1467.9" cy="363.1" rx="133.6" ry="58.0" fill="#5a2f1c" opacity="0.34" transform="rotate(27 1467.9 363.1)"/><ellipse cx="1298.9" cy="304.1" rx="121.8" ry="71.0" fill="#5a2f1c" opacity="0.33" transform="rotate(49 1298.9 304.1)"/><ellipse cx="1451.8" cy="360.2" rx="92.1" ry="56.6" fill="#5a2f1c" opacity="0.37" transform="rotate(9 1451.8 360.2)"/><ellipse cx="1355.0" cy="383.4" rx="117.1" ry="89.1" fill="#5a2f1c" opacity="0.38" transform="rotate(41 1355.0 383.4)"/><ellipse cx="1419.0" cy="258.2" rx="77.7" ry="53.5" fill="#5a2f1c" opacity="0.29" transform="rotate(46 1419.0 258.2)"/><ellipse cx="1332.6" cy="332.7" rx="125.2" ry="56.4" fill="#5a2f1c" opacity="0.37" transform="rotate(139 1332.6 332.7)"/><ellipse cx="1335.7" cy="342.9" rx="65.7" ry="33.1" fill="#5a2f1c" opacity="0.29" transform="rotate(156 1335.7 342.9)"/><ellipse cx="1366.3" cy="235.8" rx="74.6" ry="56.3" fill="#5a2f1c" opacity="0.29" transform="rotate(72 1366.3 235.8)"/><ellipse cx="1529.3" cy="690.8" rx="110.2" ry="84.4" fill="#e0a466" opacity="0.18"/><ellipse cx="1285.8" cy="525.2" rx="102.0" ry="78.3" fill="#e0a466" opacity="0.22"/><ellipse cx="1261.7" cy="528.0" rx="121.6" ry="79.9" fill="#e0a466" opacity="0.16"/><ellipse cx="1080.0" cy="163.9" rx="189.7" ry="130.3" fill="#e0a466" opacity="0.13"/><ellipse cx="221.7" cy="794.3" rx="81.1" ry="44.8" fill="#e0a466" opacity="0.25"/><ellipse cx="2269.7" cy="794.3" rx="81.1" ry="44.8" fill="#e0a466" opacity="0.25"/><ellipse cx="326.3" cy="420.2" rx="91.0" ry="48.8" fill="#e0a466" opacity="0.22"/><ellipse cx="1311.4" cy="173.2" rx="73.8" ry="62.4" fill="#e0a466" opacity="0.21"/><ellipse cx="1689.4" cy="682.9" rx="82.3" ry="72.3" fill="#e0a466" opacity="0.25"/><ellipse cx="1710.6" cy="605.7" rx="144.7" ry="100.5" fill="#e0a466" opacity="0.18"/><ellipse cx="346.5" cy="1018.8" rx="94.9" ry="52.2" fill="#e0a466" opacity="0.14"/><circle cx="1843.8" cy="541.0" r="24.9" fill="#5a2f1c" opacity="0.18"/><circle cx="1843.8" cy="541.0" r="24.9" fill="none" stroke="#e8b184" stroke-width="2.99" opacity="0.24"/><circle cx="-204.2" cy="541.0" r="24.9" fill="#5a2f1c" opacity="0.18"/><circle cx="-204.2" cy="541.0" r="24.9" fill="none" stroke="#e8b184" stroke-width="2.99" opacity="0.24"/><circle cx="1612.3" cy="311.7" r="37.8" fill="#5a2f1c" opacity="0.32"/><circle cx="1612.3" cy="311.7" r="37.8" fill="none" stroke="#e8b184" stroke-width="4.53" opacity="0.38"/><circle cx="1087.3" cy="165.4" r="38.3" fill="#5a2f1c" opacity="0.25"/><circle cx="1087.3" cy="165.4" r="38.3" fill="none" stroke="#e8b184" stroke-width="4.60" opacity="0.30"/><circle cx="1908.0" cy="857.2" r="29.6" fill="#5a2f1c" opacity="0.21"/><circle cx="1908.0" cy="857.2" r="29.6" fill="none" stroke="#e8b184" stroke-width="3.56" opacity="0.30"/><circle cx="-140.0" cy="857.2" r="29.6" fill="#5a2f1c" opacity="0.21"/><circle cx="-140.0" cy="857.2" r="29.6" fill="none" stroke="#e8b184" stroke-width="3.56" opacity="0.30"/><circle cx="156.7" cy="47.0" r="33.7" fill="#5a2f1c" opacity="0.20"/><circle cx="156.7" cy="47.0" r="33.7" fill="none" stroke="#e8b184" stroke-width="4.04" opacity="0.32"/><circle cx="2204.7" cy="47.0" r="33.7" fill="#5a2f1c" opacity="0.20"/><circle cx="2204.7" cy="47.0" r="33.7" fill="none" stroke="#e8b184" stroke-width="4.04" opacity="0.32"/><circle cx="1668.6" cy="140.7" r="36.8" fill="#5a2f1c" opacity="0.15"/><circle cx="1668.6" cy="140.7" r="36.8" fill="none" stroke="#e8b184" stroke-width="4.42" opacity="0.33"/><circle cx="1179.7" cy="165.7" r="38.8" fill="#5a2f1c" opacity="0.17"/><circle cx="1179.7" cy="165.7" r="38.8" fill="none" stroke="#e8b184" stroke-width="4.66" opacity="0.22"/><circle cx="581.0" cy="294.1" r="39.4" fill="#5a2f1c" opacity="0.26"/><circle cx="581.0" cy="294.1" r="39.4" fill="none" stroke="#e8b184" stroke-width="4.72" opacity="0.40"/><circle cx="1176.5" cy="533.8" r="40.5" fill="#5a2f1c" opacity="0.21"/><circle cx="1176.5" cy="533.8" r="40.5" fill="none" stroke="#e8b184" stroke-width="4.86" opacity="0.39"/><circle cx="27.5" cy="598.7" r="26.3" fill="#5a2f1c" opacity="0.16"/><circle cx="27.5" cy="598.7" r="26.3" fill="none" stroke="#e8b184" stroke-width="3.16" opacity="0.30"/><circle cx="2075.5" cy="598.7" r="26.3" fill="#5a2f1c" opacity="0.16"/><circle cx="2075.5" cy="598.7" r="26.3" fill="none" stroke="#e8b184" stroke-width="3.16" opacity="0.30"/><circle cx="980.9" cy="879.6" r="28.2" fill="#5a2f1c" opacity="0.18"/><circle cx="980.9" cy="879.6" r="28.2" fill="none" stroke="#e8b184" stroke-width="3.38" opacity="0.34"/><circle cx="1090.5" cy="552.7" r="6.4" fill="#5a2f1c" opacity="0.20"/><circle cx="1090.5" cy="552.7" r="6.4" fill="none" stroke="#e8b184" stroke-width="0.77" opacity="0.34"/><circle cx="1326.0" cy="910.7" r="8.5" fill="#5a2f1c" opacity="0.25"/><circle cx="1326.0" cy="910.7" r="8.5" fill="none" stroke="#e8b184" stroke-width="1.01" opacity="0.24"/><circle cx="425.4" cy="110.7" r="15.7" fill="#5a2f1c" opacity="0.33"/><circle cx="425.4" cy="110.7" r="15.7" fill="none" stroke="#e8b184" stroke-width="1.89" opacity="0.27"/><circle cx="1807.1" cy="756.8" r="20.3" fill="#5a2f1c" opacity="0.28"/><circle cx="1807.1" cy="756.8" r="20.3" fill="none" stroke="#e8b184" stroke-width="2.43" opacity="0.39"/><circle cx="-240.9" cy="756.8" r="20.3" fill="#5a2f1c" opacity="0.28"/><circle cx="-240.9" cy="756.8" r="20.3" fill="none" stroke="#e8b184" stroke-width="2.43" opacity="0.39"/><circle cx="1075.2" cy="679.9" r="42.0" fill="#5a2f1c" opacity="0.23"/><circle cx="1075.2" cy="679.9" r="42.0" fill="none" stroke="#e8b184" stroke-width="5.04" opacity="0.32"/><circle cx="1691.8" cy="739.7" r="35.4" fill="#5a2f1c" opacity="0.35"/><circle cx="1691.8" cy="739.7" r="35.4" fill="none" stroke="#e8b184" stroke-width="4.25" opacity="0.34"/><circle cx="501.4" cy="890.7" r="28.1" fill="#5a2f1c" opacity="0.27"/><circle cx="501.4" cy="890.7" r="28.1" fill="none" stroke="#e8b184" stroke-width="3.37" opacity="0.31"/><circle cx="1120.8" cy="611.7" r="23.6" fill="#5a2f1c" opacity="0.26"/><circle cx="1120.8" cy="611.7" r="23.6" fill="none" stroke="#e8b184" stroke-width="2.84" opacity="0.22"/><circle cx="851.1" cy="426.9" r="7.3" fill="#5a2f1c" opacity="0.24"/><circle cx="851.1" cy="426.9" r="7.3" fill="none" stroke="#e8b184" stroke-width="0.88" opacity="0.26"/><circle cx="1077.4" cy="215.0" r="10.1" fill="#5a2f1c" opacity="0.22"/><circle cx="1077.4" cy="215.0" r="10.1" fill="none" stroke="#e8b184" stroke-width="1.21" opacity="0.29"/><circle cx="1172.2" cy="1021.1" r="26.4" fill="#5a2f1c" opacity="0.29"/><circle cx="1172.2" cy="1021.1" r="26.4" fill="none" stroke="#e8b184" stroke-width="3.17" opacity="0.25"/><circle cx="612.7" cy="815.2" r="40.5" fill="#5a2f1c" opacity="0.30"/><circle cx="612.7" cy="815.2" r="40.5" fill="none" stroke="#e8b184" stroke-width="4.86" opacity="0.36"/><circle cx="1623.2" cy="727.0" r="22.3" fill="#5a2f1c" opacity="0.20"/><circle cx="1623.2" cy="727.0" r="22.3" fill="none" stroke="#e8b184" stroke-width="2.68" opacity="0.25"/><circle cx="763.1" cy="84.1" r="40.0" fill="#5a2f1c" opacity="0.23"/><circle cx="763.1" cy="84.1" r="40.0" fill="none" stroke="#e8b184" stroke-width="4.80" opacity="0.38"/><circle cx="200.0" cy="544.4" r="37.8" fill="#5a2f1c" opacity="0.18"/><circle cx="200.0" cy="544.4" r="37.8" fill="none" stroke="#e8b184" stroke-width="4.53" opacity="0.23"/><circle cx="2248.0" cy="544.4" r="37.8" fill="#5a2f1c" opacity="0.18"/><circle cx="2248.0" cy="544.4" r="37.8" fill="none" stroke="#e8b184" stroke-width="4.53" opacity="0.23"/><circle cx="14.1" cy="112.3" r="11.6" fill="#5a2f1c" opacity="0.30"/><circle cx="14.1" cy="112.3" r="11.6" fill="none" stroke="#e8b184" stroke-width="1.39" opacity="0.37"/><circle cx="2062.1" cy="112.3" r="11.6" fill="#5a2f1c" opacity="0.30"/><circle cx="2062.1" cy="112.3" r="11.6" fill="none" stroke="#e8b184" stroke-width="1.39" opacity="0.37"/><circle cx="898.4" cy="295.9" r="7.3" fill="#5a2f1c" opacity="0.17"/><circle cx="898.4" cy="295.9" r="7.3" fill="none" stroke="#e8b184" stroke-width="0.87" opacity="0.26"/><circle cx="310.4" cy="667.2" r="39.0" fill="#5a2f1c" opacity="0.17"/><circle cx="310.4" cy="667.2" r="39.0" fill="none" stroke="#e8b184" stroke-width="4.68" opacity="0.35"/><circle cx="1275.3" cy="974.9" r="27.2" fill="#5a2f1c" opacity="0.31"/><circle cx="1275.3" cy="974.9" r="27.2" fill="none" stroke="#e8b184" stroke-width="3.26" opacity="0.25"/><circle cx="1178.5" cy="497.9" r="29.1" fill="#5a2f1c" opacity="0.16"/><circle cx="1178.5" cy="497.9" r="29.1" fill="none" stroke="#e8b184" stroke-width="3.50" opacity="0.27"/><circle cx="1094.6" cy="96.8" r="40.0" fill="#5a2f1c" opacity="0.27"/><circle cx="1094.6" cy="96.8" r="40.0" fill="none" stroke="#e8b184" stroke-width="4.79" opacity="0.30"/><circle cx="516.3" cy="584.3" r="4.4" fill="#5a2f1c" opacity="0.24"/><circle cx="516.3" cy="584.3" r="4.4" fill="none" stroke="#e8b184" stroke-width="0.52" opacity="0.26"/><circle cx="1352.7" cy="834.3" r="19.9" fill="#5a2f1c" opacity="0.25"/><circle cx="1352.7" cy="834.3" r="19.9" fill="none" stroke="#e8b184" stroke-width="2.39" opacity="0.39"/><circle cx="383.9" cy="519.3" r="24.3" fill="#5a2f1c" opacity="0.18"/><circle cx="383.9" cy="519.3" r="24.3" fill="none" stroke="#e8b184" stroke-width="2.92" opacity="0.33"/><circle cx="244.8" cy="988.8" r="37.1" fill="#5a2f1c" opacity="0.19"/><circle cx="244.8" cy="988.8" r="37.1" fill="none" stroke="#e8b184" stroke-width="4.45" opacity="0.21"/><circle cx="2292.8" cy="988.8" r="37.1" fill="#5a2f1c" opacity="0.19"/><circle cx="2292.8" cy="988.8" r="37.1" fill="none" stroke="#e8b184" stroke-width="4.45" opacity="0.21"/><circle cx="941.2" cy="905.4" r="8.2" fill="#5a2f1c" opacity="0.22"/><circle cx="941.2" cy="905.4" r="8.2" fill="none" stroke="#e8b184" stroke-width="0.99" opacity="0.28"/><circle cx="1429.2" cy="834.2" r="21.0" fill="#5a2f1c" opacity="0.29"/><circle cx="1429.2" cy="834.2" r="21.0" fill="none" stroke="#e8b184" stroke-width="2.53" opacity="0.34"/><circle cx="911.7" cy="59.4" r="6.7" fill="#5a2f1c" opacity="0.28"/><circle cx="911.7" cy="59.4" r="6.7" fill="none" stroke="#e8b184" stroke-width="0.80" opacity="0.25"/><circle cx="1198.8" cy="63.8" r="16.9" fill="#5a2f1c" opacity="0.16"/><circle cx="1198.8" cy="63.8" r="16.9" fill="none" stroke="#e8b184" stroke-width="2.03" opacity="0.22"/><circle cx="659.6" cy="401.5" r="30.4" fill="#5a2f1c" opacity="0.23"/><circle cx="659.6" cy="401.5" r="30.4" fill="none" stroke="#e8b184" stroke-width="3.64" opacity="0.35"/><circle cx="1772.4" cy="587.8" r="20.5" fill="#5a2f1c" opacity="0.21"/><circle cx="1772.4" cy="587.8" r="20.5" fill="none" stroke="#e8b184" stroke-width="2.47" opacity="0.32"/><circle cx="-275.6" cy="587.8" r="20.5" fill="#5a2f1c" opacity="0.21"/><circle cx="-275.6" cy="587.8" r="20.5" fill="none" stroke="#e8b184" stroke-width="2.47" opacity="0.32"/><circle cx="514.5" cy="683.2" r="38.8" fill="#5a2f1c" opacity="0.16"/><circle cx="514.5" cy="683.2" r="38.8" fill="none" stroke="#e8b184" stroke-width="4.65" opacity="0.36"/><circle cx="43.3" cy="977.9" r="42.2" fill="#5a2f1c" opacity="0.27"/><circle cx="43.3" cy="977.9" r="42.2" fill="none" stroke="#e8b184" stroke-width="5.06" opacity="0.32"/><circle cx="2091.3" cy="977.9" r="42.2" fill="#5a2f1c" opacity="0.27"/><circle cx="2091.3" cy="977.9" r="42.2" fill="none" stroke="#e8b184" stroke-width="5.06" opacity="0.32"/><circle cx="1207.5" cy="726.5" r="17.0" fill="#5a2f1c" opacity="0.28"/><circle cx="1207.5" cy="726.5" r="17.0" fill="none" stroke="#e8b184" stroke-width="2.04" opacity="0.26"/><circle cx="1029.9" cy="839.3" r="32.1" fill="#5a2f1c" opacity="0.25"/><circle cx="1029.9" cy="839.3" r="32.1" fill="none" stroke="#e8b184" stroke-width="3.85" opacity="0.40"/><circle cx="289.6" cy="466.3" r="35.1" fill="#5a2f1c" opacity="0.25"/><circle cx="289.6" cy="466.3" r="35.1" fill="none" stroke="#e8b184" stroke-width="4.22" opacity="0.38"/><circle cx="2337.6" cy="466.3" r="35.1" fill="#5a2f1c" opacity="0.25"/><circle cx="2337.6" cy="466.3" r="35.1" fill="none" stroke="#e8b184" stroke-width="4.22" opacity="0.38"/><circle cx="1917.3" cy="98.4" r="32.8" fill="#5a2f1c" opacity="0.33"/><circle cx="1917.3" cy="98.4" r="32.8" fill="none" stroke="#e8b184" stroke-width="3.94" opacity="0.36"/><circle cx="-130.7" cy="98.4" r="32.8" fill="#5a2f1c" opacity="0.33"/><circle cx="-130.7" cy="98.4" r="32.8" fill="none" stroke="#e8b184" stroke-width="3.94" opacity="0.36"/><circle cx="2041.6" cy="406.2" r="17.3" fill="#5a2f1c" opacity="0.35"/><circle cx="2041.6" cy="406.2" r="17.3" fill="none" stroke="#e8b184" stroke-width="2.08" opacity="0.34"/><circle cx="-6.4" cy="406.2" r="17.3" fill="#5a2f1c" opacity="0.35"/><circle cx="-6.4" cy="406.2" r="17.3" fill="none" stroke="#e8b184" stroke-width="2.08" opacity="0.34"/><circle cx="580.7" cy="316.6" r="43.0" fill="#5a2f1c" opacity="0.34"/><circle cx="580.7" cy="316.6" r="43.0" fill="none" stroke="#e8b184" stroke-width="5.16" opacity="0.28"/><circle cx="53.7" cy="906.4" r="10.7" fill="#5a2f1c" opacity="0.30"/><circle cx="53.7" cy="906.4" r="10.7" fill="none" stroke="#e8b184" stroke-width="1.28" opacity="0.35"/><circle cx="2101.7" cy="906.4" r="10.7" fill="#5a2f1c" opacity="0.30"/><circle cx="2101.7" cy="906.4" r="10.7" fill="none" stroke="#e8b184" stroke-width="1.28" opacity="0.35"/><circle cx="1701.1" cy="472.8" r="33.1" fill="#5a2f1c" opacity="0.20"/><circle cx="1701.1" cy="472.8" r="33.1" fill="none" stroke="#e8b184" stroke-width="3.97" opacity="0.26"/><circle cx="859.0" cy="647.4" r="12.6" fill="#5a2f1c" opacity="0.21"/><circle cx="859.0" cy="647.4" r="12.6" fill="none" stroke="#e8b184" stroke-width="1.52" opacity="0.34"/><circle cx="1419.8" cy="936.6" r="35.2" fill="#5a2f1c" opacity="0.30"/><circle cx="1419.8" cy="936.6" r="35.2" fill="none" stroke="#e8b184" stroke-width="4.22" opacity="0.35"/><circle cx="1333.9" cy="610.7" r="44.3" fill="#5a2f1c" opacity="0.21"/><circle cx="1333.9" cy="610.7" r="44.3" fill="none" stroke="#e8b184" stroke-width="5.32" opacity="0.30"/><circle cx="570.1" cy="822.0" r="32.2" fill="#5a2f1c" opacity="0.32"/><circle cx="570.1" cy="822.0" r="32.2" fill="none" stroke="#e8b184" stroke-width="3.86" opacity="0.31"/><circle cx="477.9" cy="353.1" r="17.4" fill="#5a2f1c" opacity="0.25"/><circle cx="477.9" cy="353.1" r="17.4" fill="none" stroke="#e8b184" stroke-width="2.09" opacity="0.40"/><circle cx="1691.3" cy="213.6" r="14.2" fill="#5a2f1c" opacity="0.29"/><circle cx="1691.3" cy="213.6" r="14.2" fill="none" stroke="#e8b184" stroke-width="1.71" opacity="0.32"/><circle cx="1701.7" cy="924.1" r="22.9" fill="#5a2f1c" opacity="0.16"/><circle cx="1701.7" cy="924.1" r="22.9" fill="none" stroke="#e8b184" stroke-width="2.74" opacity="0.24"/><circle cx="77.7" cy="791.0" r="32.0" fill="#5a2f1c" opacity="0.28"/><circle cx="77.7" cy="791.0" r="32.0" fill="none" stroke="#e8b184" stroke-width="3.84" opacity="0.28"/><circle cx="2125.7" cy="791.0" r="32.0" fill="#5a2f1c" opacity="0.28"/><circle cx="2125.7" cy="791.0" r="32.0" fill="none" stroke="#e8b184" stroke-width="3.84" opacity="0.28"/><circle cx="320.4" cy="305.0" r="27.9" fill="#5a2f1c" opacity="0.26"/><circle cx="320.4" cy="305.0" r="27.9" fill="none" stroke="#e8b184" stroke-width="3.35" opacity="0.29"/><circle cx="642.5" cy="91.3" r="39.1" fill="#5a2f1c" opacity="0.30"/><circle cx="642.5" cy="91.3" r="39.1" fill="none" stroke="#e8b184" stroke-width="4.69" opacity="0.38"/><circle cx="715.4" cy="230.0" r="23.3" fill="#5a2f1c" opacity="0.22"/><circle cx="715.4" cy="230.0" r="23.3" fill="none" stroke="#e8b184" stroke-width="2.80" opacity="0.33"/><circle cx="320.7" cy="986.2" r="38.3" fill="#5a2f1c" opacity="0.18"/><circle cx="320.7" cy="986.2" r="38.3" fill="none" stroke="#e8b184" stroke-width="4.59" opacity="0.27"/><circle cx="881.3" cy="888.0" r="6.1" fill="#5a2f1c" opacity="0.32"/><circle cx="881.3" cy="888.0" r="6.1" fill="none" stroke="#e8b184" stroke-width="0.73" opacity="0.38"/><circle cx="1243.5" cy="512.7" r="12.6" fill="#5a2f1c" opacity="0.20"/><circle cx="1243.5" cy="512.7" r="12.6" fill="none" stroke="#e8b184" stroke-width="1.52" opacity="0.34"/><circle cx="1686.6" cy="508.4" r="39.8" fill="#5a2f1c" opacity="0.17"/><circle cx="1686.6" cy="508.4" r="39.8" fill="none" stroke="#e8b184" stroke-width="4.78" opacity="0.37"/><circle cx="1812.2" cy="369.8" r="5.5" fill="#5a2f1c" opacity="0.15"/><circle cx="1812.2" cy="369.8" r="5.5" fill="none" stroke="#e8b184" stroke-width="0.66" opacity="0.31"/><circle cx="-235.8" cy="369.8" r="5.5" fill="#5a2f1c" opacity="0.15"/><circle cx="-235.8" cy="369.8" r="5.5" fill="none" stroke="#e8b184" stroke-width="0.66" opacity="0.31"/><circle cx="1591.5" cy="399.0" r="24.0" fill="#5a2f1c" opacity="0.22"/><circle cx="1591.5" cy="399.0" r="24.0" fill="none" stroke="#e8b184" stroke-width="2.88" opacity="0.28"/><circle cx="1749.9" cy="216.4" r="12.6" fill="#5a2f1c" opacity="0.22"/><circle cx="1749.9" cy="216.4" r="12.6" fill="none" stroke="#e8b184" stroke-width="1.51" opacity="0.23"/><circle cx="-298.1" cy="216.4" r="12.6" fill="#5a2f1c" opacity="0.22"/><circle cx="-298.1" cy="216.4" r="12.6" fill="none" stroke="#e8b184" stroke-width="1.51" opacity="0.23"/><circle cx="1264.9" cy="494.2" r="41.6" fill="#5a2f1c" opacity="0.31"/><circle cx="1264.9" cy="494.2" r="41.6" fill="none" stroke="#e8b184" stroke-width="4.99" opacity="0.21"/><circle cx="1256.5" cy="983.6" r="13.0" fill="#5a2f1c" opacity="0.25"/><circle cx="1256.5" cy="983.6" r="13.0" fill="none" stroke="#e8b184" stroke-width="1.56" opacity="0.24"/><circle cx="989.8" cy="211.1" r="15.3" fill="#5a2f1c" opacity="0.20"/><circle cx="989.8" cy="211.1" r="15.3" fill="none" stroke="#e8b184" stroke-width="1.84" opacity="0.31"/><circle cx="322.3" cy="122.8" r="35.8" fill="#5a2f1c" opacity="0.16"/><circle cx="322.3" cy="122.8" r="35.8" fill="none" stroke="#e8b184" stroke-width="4.30" opacity="0.30"/><circle cx="383.1" cy="468.2" r="4.1" fill="#5a2f1c" opacity="0.17"/><circle cx="383.1" cy="468.2" r="4.1" fill="none" stroke="#e8b184" stroke-width="0.50" opacity="0.24"/><circle cx="1204.2" cy="1015.1" r="10.2" fill="#5a2f1c" opacity="0.25"/><circle cx="1204.2" cy="1015.1" r="10.2" fill="none" stroke="#e8b184" stroke-width="1.22" opacity="0.31"/><circle cx="645.1" cy="443.2" r="17.6" fill="#5a2f1c" opacity="0.19"/><circle cx="645.1" cy="443.2" r="17.6" fill="none" stroke="#e8b184" stroke-width="2.12" opacity="0.33"/><circle cx="224.4" cy="710.1" r="27.6" fill="#5a2f1c" opacity="0.27"/><circle cx="224.4" cy="710.1" r="27.6" fill="none" stroke="#e8b184" stroke-width="3.31" opacity="0.30"/><circle cx="2272.4" cy="710.1" r="27.6" fill="#5a2f1c" opacity="0.27"/><circle cx="2272.4" cy="710.1" r="27.6" fill="none" stroke="#e8b184" stroke-width="3.31" opacity="0.30"/><circle cx="1171.7" cy="842.1" r="25.9" fill="#5a2f1c" opacity="0.28"/><circle cx="1171.7" cy="842.1" r="25.9" fill="none" stroke="#e8b184" stroke-width="3.11" opacity="0.29"/><circle cx="1887.0" cy="582.0" r="24.6" fill="#5a2f1c" opacity="0.34"/><circle cx="1887.0" cy="582.0" r="24.6" fill="none" stroke="#e8b184" stroke-width="2.95" opacity="0.34"/><circle cx="-161.0" cy="582.0" r="24.6" fill="#5a2f1c" opacity="0.34"/><circle cx="-161.0" cy="582.0" r="24.6" fill="none" stroke="#e8b184" stroke-width="2.95" opacity="0.34"/><circle cx="1439.9" cy="636.2" r="25.9" fill="#5a2f1c" opacity="0.26"/><circle cx="1439.9" cy="636.2" r="25.9" fill="none" stroke="#e8b184" stroke-width="3.10" opacity="0.29"/><circle cx="1319.7" cy="103.6" r="22.2" fill="#5a2f1c" opacity="0.28"/><circle cx="1319.7" cy="103.6" r="22.2" fill="none" stroke="#e8b184" stroke-width="2.66" opacity="0.26"/><circle cx="734.7" cy="635.1" r="5.7" fill="#5a2f1c" opacity="0.33"/><circle cx="734.7" cy="635.1" r="5.7" fill="none" stroke="#e8b184" stroke-width="0.69" opacity="0.35"/><circle cx="1365.0" cy="483.2" r="25.6" fill="#5a2f1c" opacity="0.28"/><circle cx="1365.0" cy="483.2" r="25.6" fill="none" stroke="#e8b184" stroke-width="3.07" opacity="0.24"/><circle cx="725.6" cy="859.7" r="44.7" fill="#5a2f1c" opacity="0.32"/><circle cx="725.6" cy="859.7" r="44.7" fill="none" stroke="#e8b184" stroke-width="5.36" opacity="0.23"/><circle cx="1126.3" cy="725.9" r="31.4" fill="#5a2f1c" opacity="0.20"/><circle cx="1126.3" cy="725.9" r="31.4" fill="none" stroke="#e8b184" stroke-width="3.77" opacity="0.39"/><circle cx="102.6" cy="221.4" r="32.3" fill="#5a2f1c" opacity="0.24"/><circle cx="102.6" cy="221.4" r="32.3" fill="none" stroke="#e8b184" stroke-width="3.87" opacity="0.32"/><circle cx="2150.6" cy="221.4" r="32.3" fill="#5a2f1c" opacity="0.24"/><circle cx="2150.6" cy="221.4" r="32.3" fill="none" stroke="#e8b184" stroke-width="3.87" opacity="0.32"/><circle cx="635.8" cy="961.3" r="20.4" fill="#5a2f1c" opacity="0.29"/><circle cx="635.8" cy="961.3" r="20.4" fill="none" stroke="#e8b184" stroke-width="2.45" opacity="0.39"/><circle cx="32.1" cy="656.2" r="33.8" fill="#5a2f1c" opacity="0.22"/><circle cx="32.1" cy="656.2" r="33.8" fill="none" stroke="#e8b184" stroke-width="4.06" opacity="0.30"/><circle cx="2080.1" cy="656.2" r="33.8" fill="#5a2f1c" opacity="0.22"/><circle cx="2080.1" cy="656.2" r="33.8" fill="none" stroke="#e8b184" stroke-width="4.06" opacity="0.30"/><circle cx="254.3" cy="858.0" r="22.1" fill="#5a2f1c" opacity="0.16"/><circle cx="254.3" cy="858.0" r="22.1" fill="none" stroke="#e8b184" stroke-width="2.65" opacity="0.27"/><circle cx="2302.3" cy="858.0" r="22.1" fill="#5a2f1c" opacity="0.16"/><circle cx="2302.3" cy="858.0" r="22.1" fill="none" stroke="#e8b184" stroke-width="2.65" opacity="0.27"/><circle cx="937.6" cy="393.1" r="10.2" fill="#5a2f1c" opacity="0.27"/><circle cx="937.6" cy="393.1" r="10.2" fill="none" stroke="#e8b184" stroke-width="1.23" opacity="0.32"/><circle cx="912.9" cy="792.7" r="43.3" fill="#5a2f1c" opacity="0.27"/><circle cx="912.9" cy="792.7" r="43.3" fill="none" stroke="#e8b184" stroke-width="5.19" opacity="0.30"/><circle cx="1244.9" cy="926.9" r="6.9" fill="#5a2f1c" opacity="0.15"/><circle cx="1244.9" cy="926.9" r="6.9" fill="none" stroke="#e8b184" stroke-width="0.83" opacity="0.25"/><circle cx="1451.4" cy="149.4" r="35.3" fill="#5a2f1c" opacity="0.29"/><circle cx="1451.4" cy="149.4" r="35.3" fill="none" stroke="#e8b184" stroke-width="4.23" opacity="0.29"/><circle cx="1332.7" cy="393.2" r="26.6" fill="#5a2f1c" opacity="0.24"/><circle cx="1332.7" cy="393.2" r="26.6" fill="none" stroke="#e8b184" stroke-width="3.19" opacity="0.26"/><circle cx="1131.7" cy="465.0" r="11.9" fill="#5a2f1c" opacity="0.17"/><circle cx="1131.7" cy="465.0" r="11.9" fill="none" stroke="#e8b184" stroke-width="1.42" opacity="0.29"/><circle cx="1394.3" cy="684.7" r="11.4" fill="#5a2f1c" opacity="0.16"/><circle cx="1394.3" cy="684.7" r="11.4" fill="none" stroke="#e8b184" stroke-width="1.37" opacity="0.24"/><circle cx="410.1" cy="989.0" r="21.2" fill="#5a2f1c" opacity="0.33"/><circle cx="410.1" cy="989.0" r="21.2" fill="none" stroke="#e8b184" stroke-width="2.55" opacity="0.26"/><circle cx="1.0" cy="620.8" r="10.3" fill="#5a2f1c" opacity="0.31"/><circle cx="1.0" cy="620.8" r="10.3" fill="none" stroke="#e8b184" stroke-width="1.24" opacity="0.31"/><circle cx="2049.0" cy="620.8" r="10.3" fill="#5a2f1c" opacity="0.31"/><circle cx="2049.0" cy="620.8" r="10.3" fill="none" stroke="#e8b184" stroke-width="1.24" opacity="0.31"/><circle cx="514.7" cy="508.5" r="34.1" fill="#5a2f1c" opacity="0.29"/><circle cx="514.7" cy="508.5" r="34.1" fill="none" stroke="#e8b184" stroke-width="4.10" opacity="0.36"/><circle cx="589.1" cy="605.3" r="6.0" fill="#5a2f1c" opacity="0.33"/><circle cx="589.1" cy="605.3" r="6.0" fill="none" stroke="#e8b184" stroke-width="0.72" opacity="0.40"/><circle cx="1809.0" cy="858.0" r="17.5" fill="#5a2f1c" opacity="0.19"/><circle cx="1809.0" cy="858.0" r="17.5" fill="none" stroke="#e8b184" stroke-width="2.10" opacity="0.25"/><circle cx="-239.0" cy="858.0" r="17.5" fill="#5a2f1c" opacity="0.19"/><circle cx="-239.0" cy="858.0" r="17.5" fill="none" stroke="#e8b184" stroke-width="2.10" opacity="0.25"/><circle cx="547.8" cy="387.0" r="31.3" fill="#5a2f1c" opacity="0.21"/><circle cx="547.8" cy="387.0" r="31.3" fill="none" stroke="#e8b184" stroke-width="3.75" opacity="0.38"/><circle cx="1223.1" cy="950.6" r="17.0" fill="#5a2f1c" opacity="0.18"/><circle cx="1223.1" cy="950.6" r="17.0" fill="none" stroke="#e8b184" stroke-width="2.04" opacity="0.21"/><circle cx="1210.5" cy="552.4" r="10.7" fill="#5a2f1c" opacity="0.33"/><circle cx="1210.5" cy="552.4" r="10.7" fill="none" stroke="#e8b184" stroke-width="1.29" opacity="0.38"/><circle cx="280.3" cy="946.4" r="15.4" fill="#5a2f1c" opacity="0.26"/><circle cx="280.3" cy="946.4" r="15.4" fill="none" stroke="#e8b184" stroke-width="1.85" opacity="0.29"/><circle cx="2328.3" cy="946.4" r="15.4" fill="#5a2f1c" opacity="0.26"/><circle cx="2328.3" cy="946.4" r="15.4" fill="none" stroke="#e8b184" stroke-width="1.85" opacity="0.29"/><circle cx="209.8" cy="318.2" r="19.5" fill="#5a2f1c" opacity="0.29"/><circle cx="209.8" cy="318.2" r="19.5" fill="none" stroke="#e8b184" stroke-width="2.35" opacity="0.27"/><circle cx="2257.8" cy="318.2" r="19.5" fill="#5a2f1c" opacity="0.29"/><circle cx="2257.8" cy="318.2" r="19.5" fill="none" stroke="#e8b184" stroke-width="2.35" opacity="0.27"/><circle cx="1974.3" cy="633.2" r="9.3" fill="#5a2f1c" opacity="0.29"/><circle cx="1974.3" cy="633.2" r="9.3" fill="none" stroke="#e8b184" stroke-width="1.12" opacity="0.34"/><circle cx="-73.7" cy="633.2" r="9.3" fill="#5a2f1c" opacity="0.29"/><circle cx="-73.7" cy="633.2" r="9.3" fill="none" stroke="#e8b184" stroke-width="1.12" opacity="0.34"/><circle cx="1524.6" cy="767.6" r="25.7" fill="#5a2f1c" opacity="0.23"/><circle cx="1524.6" cy="767.6" r="25.7" fill="none" stroke="#e8b184" stroke-width="3.08" opacity="0.30"/><circle cx="2016.5" cy="810.5" r="12.1" fill="#5a2f1c" opacity="0.16"/><circle cx="2016.5" cy="810.5" r="12.1" fill="none" stroke="#e8b184" stroke-width="1.45" opacity="0.26"/><circle cx="-31.5" cy="810.5" r="12.1" fill="#5a2f1c" opacity="0.16"/><circle cx="-31.5" cy="810.5" r="12.1" fill="none" stroke="#e8b184" stroke-width="1.45" opacity="0.26"/><ellipse cx="1024.0" cy="0" rx="450.6" ry="92.2" fill="#f2ede6" opacity="0.85"/><ellipse cx="1024.0" cy="1024.0" rx="368.6" ry="76.8" fill="#f2ede6" opacity="0.8"/></svg>