<svg viewBox="0 0 2048 1024" width="2048" height="1024" xmlns="http://www.w3.org/2000/svg"><defs><linearGradient id="base" x1="0" y1="0" x2="0" y2="1"><stop offset="0%" stop-color="#e4e1db"/><stop offset="55%" stop-color="#c7c3bb"/><stop offset="100%" stop-color="#a29d94"/></linearGradient></defs><rect width="2048" height="1024" fill="url(#base)"/><ellipse cx="463.3" cy="643.3" rx="74.6" ry="45.5" fill="#6b6960" opacity="0.26" transform="rotate(115 463.3 643.3)"/><ellipse cx="1150.7" cy="495.2" rx="148.7" ry="88.1" fill="#6b6960" opacity="0.26" transform="rotate(76 1150.7 495.2)"/><ellipse cx="1769.0" cy="264.1" rx="85.7" ry="59.1" fill="#6b6960" opacity="0.27" transform="rotate(155 1769.0 264.1)"/><ellipse cx="-279.0" cy="264.1" rx="85.7" ry="59.1" fill="#6b6960" opacity="0.27" transform="rotate(155 -279.0 264.1)"/><ellipse cx="927.5" cy="856.0" rx="109.1" ry="86.7" fill="#6b6960" opacity="0.28" transform="rotate(139 927.5 856.0)"/><ellipse cx="432.3" cy="566.0" rx="163.4" ry="117.1" fill="#6b6960" opacity="0.30" transform="rotate(160 432.3 566.0)"/><ellipse cx="955.1" cy="659.6" rx="68.8" ry="54.3" fill="#6b6960" opacity="0.38" transform="rotate(61 955.1 659.6)"/><ellipse cx="897.5" cy="352.9" rx="80.4" ry="64.6" fill="#6b6960" opacity="0.32" transform="rotate(27 897.5 352.9)"/><ellipse cx="1425.6" cy="801.4" rx="119.4" ry="60.5" fill="#6b6960" opacity="0.35" transform="rotate(43 1425.6 801.4)"/><ellipse cx="1029.4" cy="541.8" rx="167.4" ry="99.0" fill="#6b6960" opacity="0.28" transform="rotate(12 1029.4 541.8)"/><circle cx="66.6" cy="533.0" r="40.4" fill="#5f5b52" opacity="0.18"/><circle cx="66.6" cy="533.0" r="40.4" fill="none" stroke="#f2efe8" stroke-width="4.85" opacity="0.37"/><circle cx="2114.6" cy="533.0" r="40.4" fill="#5f5b52" opacity="0.18"/><circle cx="2114.6" cy="533.0" r="40.4" fill="none" stroke="#f2efe8" stroke-width="4.85" opacity="0.37"/><circle cx="492.9" cy="431.8" r="42.0" fill="#5f5b52" opacity="0.26"/><circle cx="492.9" cy="431.8" r="42.0" fill="none" stroke="#f2efe8" stroke-width="5.04" opacity="0.39"/><circle cx="180.9" cy="762.2" r="28.5" fill="#5f5b52" opacity="0.28"/><circle cx="180.9" cy="762.2" r="28.5" fill="none" stroke="#f2efe8" stroke-width="3.41" opacity="0.38"/><circle cx="2228.9" cy="762.2" r="28.5" fill="#5f5b52" opacity="0.28"/><circle cx="2228.9" cy="762.2" r="28.5" fill="none" stroke="#f2efe8" stroke-width="3.41" opacity="0.38"/><circle cx="54.0" cy="915.5" r="26.3" fill="#5f5b52" opacity="0.34"/><circle cx="54.0" cy="915.5" r="26.3" fill="none" stroke="#f2efe8" stroke-width="3.15" opacity="0.29"/><circle cx="2102.0" cy="915.5" r="26.3" fill="#5f5b52" opacity="0.34"/><circle cx="2102.0" cy="915.5" r="26.3" fill="none" stroke="#f2efe8" stroke-width="3.15" opacity="0.29"/><circle cx="1549.9" cy="243.3" r="11.7" fill="#5f5b52" opacity="0.22"/><circle cx="1549.9" cy="243.3" r="11.7" fill="none" stroke="#f2efe8" stroke-width="1.40" opacity="0.34"/><circle cx="1607.8" cy="890.0" r="49.8" fill="#5f5b52" opacity="0.31"/><circle cx="1607.8" cy="890.0" r="49.8" fill="none" stroke="#f2efe8" stroke-width="5.98" opacity="0.37"/><circle cx="989.2" cy="392.0" r="5.3" fill="#5f5b52" opacity="0.33"/><circle cx="989.2" cy="392.0" r="5.3" fill="none" stroke="#f2efe8" stroke-width="0.64" opacity="0.28"/><circle cx="177.9" cy="1009.7" r="52.2" fill="#5f5b52" opacity="0.27"/><circle cx="177.9" cy="1009.7" r="52.2" fill="none" stroke="#f2efe8" stroke-width="6.26" opacity="0.37"/><circle cx="2225.9" cy="1009.7" r="52.2" fill="#5f5b52" opacity="0.27"/><circle cx="2225.9" cy="1009.7" r="52.2" fill="none" stroke="#f2efe8" stroke-width="6.26" opacity="0.37"/><circle cx="460.9" cy="407.7" r="26.6" fill="#5f5b52" opacity="0.28"/><circle cx="460.9" cy="407.7" r="26.6" fill="none" stroke="#f2efe8" stroke-width="3.19" opacity="0.33"/><circle cx="860.4" cy="112.5" r="4.5" fill="#5f5b52" opacity="0.23"/><circle cx="860.4" cy="112.5" r="4.5" fill="none" stroke="#f2efe8" stroke-width="0.54" opacity="0.33"/><circle cx="1365.1" cy="993.2" r="48.9" fill="#5f5b52" opacity="0.18"/><circle cx="1365.1" cy="993.2" r="48.9" fill="none" stroke="#f2efe8" stroke-width="5.86" opacity="0.26"/><circle cx="1760.6" cy="792.1" r="12.9" fill="#5f5b52" opacity="0.16"/><circle cx="1760.6" cy="792.1" r="12.9" fill="none" stroke="#f2efe8" stroke-width="1.54" opacity="0.28"/><circle cx="-287.4" cy="792.1" r="12.9" fill="#5f5b52" opacity="0.16"/><circle cx="-287.4" cy="792.1" r="12.9" fill="none" stroke="#f2efe8" stroke-width="1.54" opacity="0.28"/><circle cx="599.5" cy="724.2" r="4.5" fill="#5f5b52" opacity="0.24"/><circle cx="599.5" cy="724.2" r="4.5" fill="none" stroke="#f2efe8" stroke-width="0.54" opacity="0.26"/><circle cx="148.9" cy="967.7" r="49.0" fill="#5f5b52" opacity="0.30"/><circle cx="148.9" cy="967.7" r="49.0" fill="none" stroke="#f2efe8" stroke-width="5.88" opacity="0.26"/><circle cx="2196.9" cy="967.7" r="49.0" fill="#5f5b52" opacity="0.30"/><circle cx="2196.9" cy="967.7" r="49.0" fill="none" stroke="#f2efe8" stroke-width="5.88" opacity="0.26"/><circle cx="277.3" cy="23.3" r="26.3" fill="#5f5b52" opacity="0.27"/><circle cx="277.3" cy="23.3" r="26.3" fill="none" stroke="#f2efe8" stroke-width="3.16" opacity="0.34"/><circle cx="2325.3" cy="23.3" r="26.3" fill="#5f5b52" opacity="0.27"/><circle cx="2325.3" cy="23.3" r="26.3" fill="none" stroke="#f2efe8" stroke-width="3.16" opacity="0.34"/><circle cx="289.0" cy="788.0" r="36.7" fill="#5f5b52" opacity="0.34"/><circle cx="289.0" cy="788.0" r="36.7" fill="none" stroke="#f2efe8" stroke-width="4.40" opacity="0.22"/><circle cx="2337.0" cy="788.0" r="36.7" fill="#5f5b52" opacity="0.34"/><circle cx="2337.0" cy="788.0" r="36.7" fill="none" stroke="#f2efe8" stroke-width="4.40" opacity="0.22"/><circle cx="1818.7" cy="632.0" r="29.0" fill="#5f5b52" opacity="0.22"/><circle cx="1818.7" cy="632.0" r="29.0" fill="none" stroke="#f2efe8" stroke-width="3.48" opacity="0.33"/><circle cx="-229.3" cy="632.0" r="29.0" fill="#5f5b52" opacity="0.22"/><circle cx="-229.3" cy="632.0" r="29.0" fill="none" stroke="#f2efe8" stroke-width="3.48" opacity="0.33"/><circle cx="148.8" cy="155.4" r="21.2" fill="#5f5b52" opacity="0.34"/><circle cx="148.8" cy="155.4" r="21.2" fill="none" stroke="#f2efe8" stroke-width="2.55" opacity="0.31"/><circle cx="2196.8" cy="155.4" r="21.2" fill="#5f5b52" opacity="0.34"/><circle cx="2196.8" cy="155.4" r="21.2" fill="none" stroke="#f2efe8" stroke-width="2.55" opacity="0.31"/><circle cx="585.6" cy="863.2" r="45.3" fill="#5f5b52" opacity="0.28"/><circle cx="585.6" cy="863.2" r="45.3" fill="none" stroke="#f2efe8" stroke-width="5.43" opacity="0.30"/><circle cx="398.9" cy="183.5" r="49.7" fill="#5f5b52" opacity="0.29"/><circle cx="398.9" cy="183.5" r="49.7" fill="none" stroke="#f2efe8" stroke-width="5.97" opacity="0.20"/><circle cx="1962.1" cy="553.6" r="44.5" fill="#5f5b52" opacity="0.33"/><circle cx="1962.1" cy="553.6" r="44.5" fill="none" stroke="#f2efe8" stroke-width="5.34" opacity="0.24"/><circle cx="-85.9" cy="553.6" r="44.5" fill="#5f5b52" opacity="0.33"/><circle cx="-85.9" cy="553.6" r="44.5" fill="none" stroke="#f2efe8" stroke-width="5.34" opacity="0.24"/><circle cx="1881.3" cy="262.9" r="13.8" fill="#5f5b52" opacity="0.23"/><circle cx="1881.3" cy="262.9" r="13.8" fill="none" stroke="#f2efe8" stroke-width="1.66" opacity="0.24"/><circle cx="-166.7" cy="262.9" r="13.8" fill="#5f5b52" opacity="0.23"/><circle cx="-166.7" cy="262.9" r="13.8" fill="none" stroke="#f2efe8" stroke-width="1.66" opacity="0.24"/><circle cx="1077.5" cy="760.8" r="43.2" fill="#5f5b52" opacity="0.19"/><circle cx="1077.5" cy="760.8" r="43.2" fill="none" stroke="#f2efe8" stroke-width="5.19" opacity="0.38"/><circle cx="1760.1" cy="510.8" r="34.8" fill="#5f5b52" opacity="0.25"/><circle cx="1760.1" cy="510.8" r="34.8" fill="none" stroke="#f2efe8" stroke-width="4.18" opacity="0.28"/><circle cx="-287.9" cy="510.8" r="34.8" fill="#5f5b52" opacity="0.25"/><circle cx="-287.9" cy="510.8" r="34.8" fill="none" stroke="#f2efe8" stroke-width="4.18" opacity="0.28"/><circle cx="373.5" cy="36.1" r="16.1" fill="#5f5b52" opacity="0.24"/><circle cx="373.5" cy="36.1" r="16.1" fill="none" stroke="#f2efe8" stroke-width="1.93" opacity="0.21"/><circle cx="114.8" cy="894.1" r="49.6" fill="#5f5b52" opacity="0.34"/><circle cx="114.8" cy="894.1" r="49.6" fill="none" stroke="#f2efe8" stroke-width="5.95" opacity="0.40"/><circle cx="2162.8" cy="894.1" r="49.6" fill="#5f5b52" opacity="0.34"/><circle cx="2162.8" cy="894.1" r="49.6" fill="none" stroke="#f2efe8" stroke-width="5.95" opacity="0.40"/><circle cx="1960.5" cy="1000.2" r="18.1" fill="#5f5b52" opacity="0.24"/><circle cx="1960.5" cy="1000.2" r="18.1" fill="none" stroke="#f2efe8" stroke-width="2.18" opacity="0.30"/><circle cx="-87.5" cy="1000.2" r="18.1" fill="#5f5b52" opacity="0.24"/><circle cx="-87.5" cy="1000.2" r="18.1" fill="none" stroke="#f2efe8" stroke-width="2.18" opacity="0.30"/><circle cx="690.0" cy="766.7" r="34.1" fill="#5f5b52" opacity="0.22"/><circle cx="690.0" cy="766.7" r="34.1" fill="none" stroke="#f2efe8" stroke-width="4.10" opacity="0.20"/><circle cx="161.1" cy="624.0" r="54.6" fill="#5f5b52" opacity="0.22"/><circle cx="161.1" cy="624.0" r="54.6" fill="none" stroke="#f2efe8" stroke-width="6.56" opacity="0.20"/><circle cx="2209.1" cy="624.0" r="54.6" fill="#5f5b52" opacity="0.22"/><circle cx="2209.1" cy="624.0" r="54.6" fill="none" stroke="#f2efe8" stroke-width="6.56" opacity="0.20"/><circle cx="1075.8" cy="457.5" r="26.9" fill="#5f5b52" opacity="0.27"/><circle cx="1075.8" cy="457.5" r="26.9" fill="none" stroke="#f2efe8" stroke-width="3.23" opacity="0.23"/><circle cx="1180.5" cy="392.5" r="28.7" fill="#5f5b52" opacity="0.32"/><circle cx="1180.5" cy="392.5" r="28.7" fill="none" stroke="#f2efe8" stroke-width="3.45" opacity="0.23"/><circle cx="203.1" cy="265.7" r="45.4" fill="#5f5b52" opacity="0.17"/><circle cx="203.1" cy="265.7" r="45.4" fill="none" stroke="#f2efe8" stroke-width="5.45" opacity="0.24"/><circle cx="2251.1" cy="265.7" r="45.4" fill="#5f5b52" opacity="0.17"/><circle cx="2251.1" cy="265.7" r="45.4" fill="none" stroke="#f2efe8" stroke-width="5.45" opacity="0.24"/><circle cx="1953.3" cy="560.4" r="6.0" fill="#5f5b52" opacity="0.33"/><circle cx="1953.3" cy="560.4" r="6.0" fill="none" stroke="#f2efe8" stroke-width="0.72" opacity="0.29"/><circle cx="-94.7" cy="560.4" r="6.0" fill="#5f5b52" opacity="0.33"/><circle cx="-94.7" cy="560.4" r="6.0" fill="none" stroke="#f2efe8" stroke-width="0.72" opacity="0.29"/><circle cx="1973.7" cy="680.8" r="26.6" fill="#5f5b52" opacity="0.32"/><circle cx="1973.7" cy="680.8" r="26.6" fill="none" stroke="#f2efe8" stroke-width="3.19" opacity="0.37"/><circle cx="-74.3" cy="680.8" r="26.6" fill="#5f5b52" opacity="0.32"/><circle cx="-74.3" cy="680.8" r="26.6" fill="none" stroke="#f2efe8" stroke-width="3.19" opacity="0.37"/><circle cx="1464.0" cy="221.1" r="35.6" fill="#5f5b52" opacity="0.35"/><circle cx="1464.0" cy="221.1" r="35.6" fill="none" stroke="#f2efe8" stroke-width="4.27" opacity="0.38"/><circle cx="197.7" cy="896.3" r="33.4" fill="#5f5b52" opacity="0.32"/><circle cx="197.7" cy="896.3" r="33.4" fill="none" stroke="#f2efe8" stroke-width="4.01" opacity="0.26"/><circle cx="2245.7" cy="896.3" r="33.4" fill="#5f5b52" opacity="0.32"/><circle cx="2245.7" cy="896.3" r="33.4" fill="none" stroke="#f2efe8" stroke-width="4.01" opacity="0.26"/><circle cx="1226.8" cy="683.5" r="41.6" fill="#5f5b52" opacity="0.27"/><circle cx="1226.8" cy="683.5" r="41.6" fill="none" stroke="#f2efe8" stroke-width="4.99" opacity="0.20"/><circle cx="2029.7" cy="70.9" r="32.9" fill="#5f5b52" opacity="0.31"/><circle cx="2029.7" cy="70.9" r="32.9" fill="none" stroke="#f2efe8" stroke-width="3.95" opacity="0.34"/><circle cx="-18.3" cy="70.9" r="32.9" fill="#5f5b52" opacity="0.31"/><circle cx="-18.3" cy="70.9" r="32.9" fill="none" stroke="#f2efe8" stroke-width="3.95" opacity="0.34"/><circle cx="1237.8" cy="150.3" r="8.8" fill="#5f5b52" opacity="0.30"/><circle cx="1237.8" cy="150.3" r="8.8" fill="none" stroke="#f2efe8" stroke-width="1.06" opacity="0.31"/><circle cx="330.3" cy="1012.4" r="10.5" fill="#5f5b52" opacity="0.28"/><circle cx="330.3" cy="1012.4" r="10.5" fill="none" stroke="#f2efe8" stroke-width="1.26" opacity="0.21"/><circle cx="699.7" cy="807.5" r="47.1" fill="#5f5b52" opacity="0.25"/><circle cx="699.7" cy="807.5" r="47.1" fill="none" stroke="#f2efe8" stroke-width="5.65" opacity="0.32"/><circle cx="471.5" cy="665.0" r="54.6" fill="#5f5b52" opacity="0.18"/><circle cx="471.5" cy="665.0" r="54.6" fill="none" stroke="#f2efe8" stroke-width="6.55" opacity="0.27"/><circle cx="1686.3" cy="832.9" r="37.9" fill="#5f5b52" opacity="0.31"/><circle cx="1686.3" cy="832.9" r="37.9" fill="none" stroke="#f2efe8" stroke-width="4.55" opacity="0.34"/><circle cx="898.2" cy="365.8" r="5.2" fill="#5f5b52" opacity="0.23"/><circle cx="898.2" cy="365.8" r="5.2" fill="none" stroke="#f2efe8" stroke-width="0.62" opacity="0.34"/><circle cx="1988.2" cy="691.4" r="20.7" fill="#5f5b52" opacity="0.30"/><circle cx="1988.2" cy="691.4" r="20.7" fill="none" stroke="#f2efe8" stroke-width="2.48" opacity="0.38"/><circle cx="-59.8" cy="691.4" r="20.7" fill="#5f5b52" opacity="0.30"/><circle cx="-59.8" cy="691.4" r="20.7" fill="none" stroke="#f2efe8" stroke-width="2.48" opacity="0.38"/><circle cx="1682.6" cy="849.8" r="34.0" fill="#5f5b52" opacity="0.21"/><circle cx="1682.6" cy="849.8" r="34.0" fill="none" stroke="#f2efe8" stroke-width="4.08" opacity="0.31"/><circle cx="1218.7" cy="193.8" r="12.0" fill="#5f5b52" opacity="0.31"/><circle cx="1218.7" cy="193.8" r="12.0" fill="none" stroke="#f2efe8" stroke-width="1.44" opacity="0.35"/><circle cx="1830.1" cy="621.0" r="28.7" fill="#5f5b52" opacity="0.19"/><circle cx="1830.1" cy="621.0" r="28.7" fill="none" stroke="#f2efe8" stroke-width="3.44" opacity="0.22"/><circle cx="-217.9" cy="621.0" r="28.7" fill="#5f5b52" opacity="0.19"/><circle cx="-217.9" cy="621.0" r="28.7" fill="none" stroke="#f2efe8" stroke-width="3.44" opacity="0.22"/><circle cx="275.2" cy="322.4" r="46.1" fill="#5f5b52" opacity="0.19"/><circle cx="275.2" cy="322.4" r="46.1" fill="none" stroke="#f2efe8" stroke-width="5.53" opacity="0.26"/><circle cx="2323.2" cy="322.4" r="46.1" fill="#5f5b52" opacity="0.19"/><circle cx="2323.2" cy="322.4" r="46.1" fill="none" stroke="#f2efe8" stroke-width="5.53" opacity="0.26"/><circle cx="761.4" cy="464.8" r="48.3" fill="#5f5b52" opacity="0.27"/><circle cx="761.4" cy="464.8" r="48.3" fill="none" stroke="#f2efe8" stroke-width="5.80" opacity="0.39"/><circle cx="1289.3" cy="378.2" r="13.3" fill="#5f5b52" opacity="0.32"/><circle cx="1289.3" cy="378.2" r="13.3" fill="none" stroke="#f2efe8" stroke-width="1.60" opacity="0.37"/><circle cx="1862.1" cy="520.2" r="22.8" fill="#5f5b52" opacity="0.27"/><circle cx="1862.1" cy="520.2" r="22.8" fill="none" stroke="#f2efe8" stroke-width="2.74" opacity="0.33"/><circle cx="-185.9" cy="520.2" r="22.8" fill="#5f5b52" opacity="0.27"/><circle cx="-185.9" cy="520.2" r="22.8" fill="none" stroke="#f2efe8" stroke-width="2.74" opacity="0.33"/><circle cx="1627.4" cy="970.9" r="18.7" fill="#5f5b52" opacity="0.24"/><circle cx="1627.4" cy="970.9" r="18.7" fill="none" stroke="#f2efe8" stroke-width="2.24" opacity="0.22"/><circle cx="1329.9" cy="408.3" r="33.9" fill="#5f5b52" opacity="0.23"/><circle cx="1329.9" cy="408.3" r="33.9" fill="none" stroke="#f2efe8" stroke-width="4.07" opacity="0.39"/><circle cx="553.3" cy="203.3" r="34.7" fill="#5f5b52" opacity="0.23"/><circle cx="553.3" cy="203.3" r="34.7" fill="none" stroke="#f2efe8" stroke-width="4.17" opacity="0.37"/><circle cx="482.2" cy="779.0" r="18.8" fill="#5f5b52" opacity="0.27"/><circle cx="482.2" cy="779.0" r="18.8" fill="none" stroke="#f2efe8" stroke-width="2.26" opacity="0.27"/><circle cx="735.1" cy="922.6" r="48.0" fill="#5f5b52" opacity="0.31"/><circle cx="735.1" cy="922.6" r="48.0" fill="none" stroke="#f2efe8" stroke-width="5.77" opacity="0.27"/><circle cx="1709.2" cy="924.6" r="18.1" fill="#5f5b52" opacity="0.32"/><circle cx="1709.2" cy="924.6" r="18.1" fill="none" stroke="#f2efe8" stroke-width="2.18" opacity="0.27"/><circle cx="1150.6" cy="172.0" r="52.4" fill="#5f5b52" opacity="0.35"/><circle cx="1150.6" cy="172.0" r="52.4" fill="none" stroke="#f2efe8" stroke-width="6.29" opacity="0.34"/><circle cx="520.1" cy="29.7" r="37.5" fill="#5f5b52" opacity="0.27"/><circle cx="520.1" cy="29.7" r="37.5" fill="none" stroke="#f2efe8" stroke-width="4.50" opacity="0.26"/><circle cx="1695.0" cy="82.3" r="12.1" fill="#5f5b52" opacity="0.23"/><circle cx="1695.0" cy="82.3" r="12.1" fill="none" stroke="#f2efe8" stroke-width="1.46" opacity="0.35"/><circle cx="1154.4" cy="37.4" r="10.9" fill="#5f5b52" opacity="0.28"/><circle cx="1154.4" cy="37.4" r="10.9" fill="none" stroke="#f2efe8" stroke-width="1.31" opacity="0.25"/><circle cx="1808.3" cy="882.6" r="43.9" fill="#5f5b52" opacity="0.29"/><circle cx="1808.3" cy="882.6" r="43.9" fill="none" stroke="#f2efe8" stroke-width="5.26" opacity="0.36"/><circle cx="-239.7" cy="882.6" r="43.9" fill="#5f5b52" opacity="0.29"/><circle cx="-239.7" cy="882.6" r="43.9" fill="none" stroke="#f2efe8" stroke-width="5.26" opacity="0.36"/><circle cx="1189.1" cy="912.8" r="35.6" fill="#5f5b52" opacity="0.24"/><circle cx="1189.1" cy="912.8" r="35.6" fill="none" stroke="#f2efe8" stroke-width="4.27" opacity="0.29"/><circle cx="806.2" cy="457.9" r="53.4" fill="#5f5b52" opacity="0.30"/><circle cx="806.2" cy="457.9" r="53.4" fill="none" stroke="#f2efe8" stroke-width="6.41" opacity="0.25"/><circle cx="1970.3" cy="817.2" r="39.4" fill="#5f5b52" opacity="0.31"/><circle cx="1970.3" cy="817.2" r="39.4" fill="none" stroke="#f2efe8" stroke-width="4.73" opacity="0.37"/><circle cx="-77.7" cy="817.2" r="39.4" fill="#5f5b52" opacity="0.31"/><circle cx="-77.7" cy="817.2" r="39.4" fill="none" stroke="#f2efe8" stroke-width="4.73" opacity="0.37"/><circle cx="1877.5" cy="548.1" r="47.5" fill="#5f5b52" opacity="0.23"/><circle cx="1877.5" cy="548.1" r="47.5" fill="none" stroke="#f2efe8" stroke-width="5.70" opacity="0.24"/><circle cx="-170.5" cy="548.1" r="47.5" fill="#5f5b52" opacity="0.23"/><circle cx="-170.5" cy="548.1" r="47.5" fill="none" stroke="#f2efe8" stroke-width="5.70" opacity="0.24"/><circle cx="896.6" cy="911.7" r="21.0" fill="#5f5b52" opacity="0.29"/><circle cx="896.6" cy="911.7" r="21.0" fill="none" stroke="#f2efe8" stroke-width="2.52" opacity="0.38"/><circle cx="1124.8" cy="330.9" r="52.6" fill="#5f5b52" opacity="0.17"/><circle cx="1124.8" cy="330.9" r="52.6" fill="none" stroke="#f2efe8" stroke-width="6.31" opacity="0.35"/><circle cx="1337.9" cy="645.5" r="19.1" fill="#5f5b52" opacity="0.25"/><circle cx="1337.9" cy="645.5" r="19.1" fill="none" stroke="#f2efe8" stroke-width="2.29" opacity="0.37"/><circle cx="196.0" cy="375.4" r="28.5" fill="#5f5b52" opacity="0.25"/><circle cx="196.0" cy="375.4" r="28.5" fill="none" stroke="#f2efe8" stroke-width="3.42" opacity="0.35"/><circle cx="2244.0" cy="375.4" r="28.5" fill="#5f5b52" opacity="0.25"/><circle cx="2244.0" cy="375.4" r="28.5" fill="none" stroke="#f2efe8" stroke-width="3.42" opacity="0.35"/><circle cx="177.2" cy="723.3" r="44.3" fill="#5f5b52" opacity="0.23"/><circle cx="177.2" cy="723.3" r="44.3" fill="none" stroke="#f2efe8" stroke-width="5.31" opacity="0.34"/><circle cx="2225.2" cy="723.3" r="44.3" fill="#5f5b52" opacity="0.23"/><circle cx="2225.2" cy="723.3" r="44.3" fill="none" stroke="#f2efe8" stroke-width="5.31" opacity="0.34"/><circle cx="1963.6" cy="200.9" r="33.4" fill="#5f5b52" opacity="0.31"/><circle cx="1963.6" cy="200.9" r="33.4" fill="none" stroke="#f2efe8" stroke-width="4.01" opacity="0.25"/><circle cx="-84.4" cy="200.9" r="33.4" fill="#5f5b52" opacity="0.31"/><circle cx="-84.4" cy="200.9" r="33.4" fill="none" stroke="#f2efe8" stroke-width="4.01" opacity="0.25"/><circle cx="1088.4" cy="738.2" r="44.0" fill="#5f5b52" opacity="0.22"/><circle cx="1088.4" cy="738.2" r="44.0" fill="none" stroke="#f2efe8" stroke-width="5.28" opacity="0.23"/><circle cx="1474.2" cy="423.8" r="32.6" fill="#5f5b52" opacity="0.16"/><circle cx="1474.2" cy="423.8" r="32.6" fill="none" stroke="#f2efe8" stroke-width="3.91" opacity="0.34"/><circle cx="1609.1" cy="818.4" r="32.7" fill="#5f5b52" opacity="0.15"/><circle cx="1609.1" cy="818.4" r="32.7" fill="none" stroke="#f2efe8" stroke-width="3.92" opacity="0.39"/><circle cx="255.7" cy="486.9" r="38.4" fill="#5f5b52" opacity="0.18"/><circle cx="255.7" cy="486.9" r="38.4" fill="none" stroke="#f2efe8" stroke-width="4.61" opacity="0.37"/><circle cx="2303.7" cy="486.9" r="38.4" fill="#5f5b52" opacity="0.18"/><circle cx="2303.7" cy="486.9" r="38.4" fill="none" stroke="#f2efe8" stroke-width="4.61" opacity="0.37"/><circle cx="1147.8" cy="559.3" r="25.0" fill="#5f5b52" opacity="0.28"/><circle cx="1147.8" cy="559.3" r="25.0" fill="none" stroke="#f2efe8" stroke-width="3.00" opacity="0.24"/><circle cx="1540.1" cy="333.4" r="49.2" fill="#5f5b52" opacity="0.33"/><circle cx="1540.1" cy="333.4" r="49.2" fill="none" stroke="#f2efe8" stroke-width="5.90" opacity="0.31"/><circle cx="390.6" cy="619.7" r="16.3" fill="#5f5b52" opacity="0.33"/><circle cx="390.6" cy="619.7" r="16.3" fill="none" stroke="#f2efe8" stroke-width="1.96" opacity="0.28"/><circle cx="1394.2" cy="431.3" r="47.5" fill="#5f5b52" opacity="0.32"/><circle cx="1394.2" cy="431.3" r="47.5" fill="none" stroke="#f2efe8" stroke-width="5.70" opacity="0.26"/><circle cx="1218.3" cy="652.0" r="15.0" fill="#5f5b52" opacity="0.33"/><circle cx="1218.3" cy="652.0" r="15.0" fill="none" stroke="#f2efe8" stroke-width="1.80" opacity="0.31"/><circle cx="1493.3" cy="951.6" r="41.0" fill="#5f5b52" opacity="0.25"/><circle cx="1493.3" cy="951.6" r="41.0" fill="none" stroke="#f2efe8" stroke-width="4.92" opacity="0.26"/><circle cx="1929.5" cy="486.2" r="38.9" fill="#5f5b52" opacity="0.27"/><circle cx="1929.5" cy="486.2" r="38.9" fill="none" stroke="#f2efe8" stroke-width="4.67" opacity="0.35"/><circle cx="-118.5" cy="486.2" r="38.9" fill="#5f5b52" opacity="0.27"/><circle cx="-118.5" cy="486.2" r="38.9" fill="none" stroke="#f2efe8" stroke-width="4.67" opacity="0.35"/><circle cx="883.2" cy="272.1" r="14.3" fill="#5f5b52" opacity="0.16"/><circle cx="883.2" cy="272.1" r="14.3" fill="none" stroke="#f2efe8" stroke-width="1.72" opacity="0.21"/><circle cx="1667.7" cy="555.9" r="29.1" fill="#5f5b52" opacity="0.30"/><circle cx="1667.7" cy="555.9" r="29.1" fill="none" stroke="#f2efe8" stroke-width="3.49" opacity="0.31"/><circle cx="1052.4" cy="805.1" r="41.8" fill="#5f5b52" opacity="0.16"/><circle cx="1052.4" cy="805.1" r="41.8" fill="none" stroke="#f2efe8" stroke-width="5.02" opacity="0.35"/><circle cx="1827.3" cy="332.7" r="32.7" fill="#5f5b52" opacity="0.30"/><circle cx="1827.3" cy="332.7" r="32.7" fill="none" stroke="#f2efe8" stroke-width="3.93" opacity="0.33"/><circle cx="-220.7" cy="332.7" r="32.7" fill="#5f5b52" opacity="0.30"/><circle cx="-220.7" cy="332.7" r="32.7" fill="none" stroke="#f2efe8" stroke-width="3.93" opacity="0.33"/><circle cx="784.7" cy="947.0" r="18.2" fill="#5f5b52" opacity="0.31"/><circle cx="784.7" cy="947.0" r="18.2" fill="none" stroke="#f2efe8" stroke-width="2.19" opacity="0.36"/><circle cx="511.0" cy="335.4" r="19.6" fill="#5f5b52" opacity="0.20"/><circle cx="511.0" cy="335.4" r="19.6" fill="none" stroke="#f2efe8" stroke-width="2.35" opacity="0.29"/><circle cx="346.9" cy="572.5" r="44.0" fill="#5f5b52" opacity="0.17"/><circle cx="346.9" cy="572.5" r="44.0" fill="none" stroke="#f2efe8" stroke-width="5.28" opacity="0.34"/><circle cx="729.3" cy="719.0" r="50.2" fill="#5f5b52" opacity="0.35"/><circle cx="729.3" cy="719.0" r="50.2" fill="none" stroke="#f2efe8" stroke-width="6.03" opacity="0.29"/><circle cx="191.3" cy="67.2" r="43.8" fill="#5f5b52" opacity="0.22"/><circle cx="191.3" cy="67.2" r="43.8" fill="none" stroke="#f2efe8" stroke-width="5.26" opacity="0.33"/><circle cx="2239.3" cy="67.2" r="43.8" fill="#5f5b52" opacity="0.22"/><circle cx="2239.3" cy="67.2" r="43.8" fill="none" stroke="#f2efe8" stroke-width="5.26" opacity="0.33"/><circle cx="1875.0" cy="904.6" r="16.6" fill="#5f5b52" opacity="0.30"/><circle cx="1875.0" cy="904.6" r="16.6" fill="none" stroke="#f2efe8" stroke-width="2.00" opacity="0.31"/><circle cx="-173.0" cy="904.6" r="16.6" fill="#5f5b52" opacity="0.30"/><circle cx="-173.0" cy="904.6" r="16.6" fill="none" stroke="#f2efe8" stroke-width="2.00" opacity="0.31"/><circle cx="1618.0" cy="540.9" r="36.4" fill="#5f5b52" opacity="0.15"/><circle cx="1618.0" cy="540.9" r="36.4" fill="none" stroke="#f2efe8" stroke-width="4.37" opacity="0.20"/><circle cx="1558.8" cy="310.5" r="15.7" fill="#5f5b52" opacity="0.16"/><circle cx="1558.8" cy="310.5" r="15.7" fill="none" stroke="#f2efe8" stroke-width="1.89" opacity="0.26"/><circle cx="1445.6" cy="466.6" r="24.0" fill="#5f5b52" opacity="0.26"/><circle cx="1445.6" cy="466.6" r="24.0" fill="none" stroke="#f2efe8" stroke-width="2.88" opacity="0.21"/><circle cx="1615.2" cy="85.2" r="5.8" fill="#5f5b52" opacity="0.32"/><circle cx="1615.2" cy="85.2" r="5.8" fill="none" stroke="#f2efe8" stroke-width="0.69" opacity="0.35"/><circle cx="1490.2" cy="774.8" r="38.3" fill="#5f5b52" opacity="0.23"/><circle cx="1490.2" cy="774.8" r="38.3" fill="none" stroke="#f2efe8" stroke-width="4.60" opacity="0.35"/><circle cx="1772.8" cy="718.9" r="9.2" fill="#5f5b52" opacity="0.21"/><circle cx="1772.8" cy="718.9" r="9.2" fill="none" stroke="#f2efe8" stroke-width="1.11" opacity="0.33"/><circle cx="-275.2" cy="718.9" r="9.2" fill="#5f5b52" opacity="0.21"/><circle cx="-275.2" cy="718.9" r="9.2" fill="none" stroke="#f2efe8" stroke-width="1.11" opacity="0.33"/><circle cx="1988.6" cy="872.9" r="10.8" fill="#5f5b52" opacity="0.34"/><circle cx="1988.6" cy="872.9" r="10.8" fill="none" stroke="#f2efe8" stroke-width="1.29" opacity="0.25"/><circle cx="-59.4" cy="872.9" r="10.8" fill="#5f5b52" opacity="0.34"/><circle cx="-59.4" cy="872.9" r="10.8" fill="none" stroke="#f2efe8" stroke-width="1.29" opacity="0.25"/><circle cx="606.4" cy="252.9" r="47.9" fill="#5f5b52" opacity="0.32"/><circle cx="606.4" cy="252.9" r="47.9" fill="none" stroke="#f2efe8" stroke-width="5.75" opacity="0.27"/><circle cx="1659.7" cy="374.3" r="6.4" fill="#5f5b52" opacity="0.17"/><circle cx="1659.7" cy="374.3" r="6.4" fill="none" stroke="#f2efe8" stroke-width="0.76" opacity="0.39"/><circle cx="1959.8" cy="793.6" r="8.4" fill="#5f5b52" opacity="0.17"/><circle cx="1959.8" cy="793.6" r="8.4" fill="none" stroke="#f2efe8" stroke-width="1.01" opacity="0.32"/><circle cx="-88.2" cy="793.6" r="8.4" fill="#5f5b52" opacity="0.17"/><circle cx="-88.2" cy="793.6" r="8.4" fill="none" stroke="#f2efe8" stroke-width="1.01" opacity="0.32"/><circle cx="1195.6" cy="905.9" r="53.9" fill="#5f5b52" opacity="0.21"/><circle cx="1195.6" cy="905.9" r="53.9" fill="none" stroke="#f2efe8" stroke-width="6.47" opacity="0.29"/><circle cx="776.5" cy="122.9" r="51.2" fill="#5f5b52" opacity="0.29"/><circle cx="776.5" cy="122.9" r="51.2" fill="none" stroke="#f2efe8" stroke-width="6.14" opacity="0.35"/><circle cx="834.8" cy="824.1" r="26.7" fill="#5f5b52" opacity="0.18"/><circle cx="834.8" cy="824.1" r="26.7" fill="none" stroke="#f2efe8" stroke-width="3.20" opacity="0.28"/><circle cx="249.5" cy="926.2" r="36.3" fill="#5f5b52" opacity="0.18"/><circle cx="249.5" cy="926.2" r="36.3" fill="none" stroke="#f2efe8" stroke-width="4.35" opacity="0.40"/><circle cx="2297.5" cy="926.2" r="36.3" fill="#5f5b52" opacity="0.18"/><circle cx="2297.5" cy="926.2" r="36.3" fill="none" stroke="#f2efe8" stroke-width="4.35" opacity="0.40"/><circle cx="1361.8" cy="318.9" r="20.2" fill="#5f5b52" opacity="0.21"/><circle cx="1361.8" cy="318.9" r="20.2" fill="none" stroke="#f2efe8" stroke-width="2.42" opacity="0.30"/><circle cx="1580.3" cy="842.6" r="50.9" fill="#5f5b52" opacity="0.22"/><circle cx="1580.3" cy="842.6" r="50.9" fill="none" stroke="#f2efe8" stroke-width="6.10" opacity="0.26"/><circle cx="361.2" cy="897.1" r="13.3" fill="#5f5b52" opacity="0.19"/><circle cx="361.2" cy="897.1" r="13.3" fill="none" stroke="#f2efe8" stroke-width="1.59" opacity="0.29"/><circle cx="537.0" cy="252.0" r="5.3" fill="#5f5b52" opacity="0.26"/><circle cx="537.0" cy="252.0" r="5.3" fill="none" stroke="#f2efe8" stroke-width="0.64" opacity="0.39"/><circle cx="1217.2" cy="959.1" r="8.6" fill="#5f5b52" opacity="0.34"/><circle cx="1217.2" cy="959.1" r="8.6" fill="none" stroke="#f2efe8" stroke-width="1.03" opacity="0.23"/><circle cx="103.1" cy="647.2" r="50.0" fill="#5f5b52" opacity="0.25"/><circle cx="103.1" cy="647.2" r="50.0" fill="none" stroke="#f2efe8" stroke-width="5.99" opacity="0.25"/><circle cx="2151.1" cy="647.2" r="50.0" fill="#5f5b52" opacity="0.25"/><circle cx="2151.1" cy="647.2" r="50.0" fill="none" stroke="#f2efe8" stroke-width="5.99" opacity="0.25"/><circle cx="533.8" cy="539.4" r="14.2" fill="#5f5b52" opacity="0.22"/><circle cx="533.8" cy="539.4" r="14.2" fill="none" stroke="#f2efe8" stroke-width="1.70" opacity="0.38"/><circle cx="1043.4" cy="962.9" r="50.6" fill="#5f5b52" opacity="0.15"/><circle cx="1043.4" cy="962.9" r="50.6" fill="none" stroke="#f2efe8" stroke-width="6.07" opacity="0.24"/><circle cx="1538.2" cy="879.4" r="36.9" fill="#5f5b52" opacity="0.25"/><circle cx="1538.2" cy="879.4" r="36.9" fill="none" stroke="#f2efe8" stroke-width="4.42" opacity="0.27"/><circle cx="1146.3" cy="903.6" r="10.8" fill="#5f5b52" opacity="0.24"/><circle cx="1146.3" cy="903.6" r="10.8" fill="none" stroke="#f2efe8" stroke-width="1.30" opacity="0.23"/><circle cx="1867.2" cy="446.0" r="48.4" fill="#5f5b52" opacity="0.30"/><circle cx="1867.2" cy="446.0" r="48.4" fill="none" stroke="#f2efe8" stroke-width="5.81" opacity="0.26"/><circle cx="-180.8" cy="446.0" r="48.4" fill="#5f5b52" opacity="0.30"/><circle cx="-180.8" cy="446.0" r="48.4" fill="none" stroke="#f2efe8" stroke-width="5.81" opacity="0.26"/><circle cx="1483.7" cy="370.9" r="29.4" fill="#5f5b52" opacity="0.24"/><circle cx="1483.7" cy="370.9" r="29.4" fill="none" stroke="#f2efe8" stroke-width="3.53" opacity="0.36"/><circle cx="259.0" cy="10.5" r="9.9" fill="#5f5b52" opacity="0.35"/><circle cx="259.0" cy="10.5" r="9.9" fill="none" stroke="#f2efe8" stroke-width="1.19" opacity="0.32"/><circle cx="2307.0" cy="10.5" r="9.9" fill="#5f5b52" opacity="0.35"/><circle cx="2307.0" cy="10.5" r="9.9" fill="none" stroke="#f2efe8" stroke-width="1.19" opacity="0.32"/><circle cx="1965.2" cy="374.3" r="35.6" fill="#5f5b52" opacity="0.25"/><circle cx="1965.2" cy="374.3" r="35.6" fill="none" stroke="#f2efe8" stroke-width="4.27" opacity="0.30"/><circle cx="-82.8" cy="374.3" r="35.6" fill="#5f5b52" opacity="0.25"/><circle cx="-82.8" cy="374.3" r="35.6" fill="none" stroke="#f2efe8" stroke-width="4.27" opacity="0.30"/><circle cx="1998.2" cy="87.8" r="24.7" fill="#5f5b52" opacity="0.27"/><circle cx="1998.2" cy="87.8" r="24.7" fill="none" stroke="#f2efe8" stroke-width="2.97" opacity="0.26"/><circle cx="-49.8" cy="87.8" r="24.7" fill="#5f5b52" opacity="0.27"/><circle cx="-49.8" cy="87.8" r="24.7" fill="none" stroke="#f2efe8" stroke-width="2.97" opacity="0.26"/><circle cx="1246.5" cy="342.1" r="48.3" fill="#5f5b52" opacity="0.27"/><circle cx="1246.5" cy="342.1" r="48.3" fill="none" stroke="#f2efe8" stroke-width="5.79" opacity="0.22"/><circle cx="958.8" cy="266.6" r="50.8" fill="#5f5b52" opacity="0.33"/><circle cx="958.8" cy="266.6" r="50.8" fill="none" stroke="#f2efe8" stroke-width="6.10" opacity="0.27"/><circle cx="101.0" cy="606.1" r="36.2" fill="#5f5b52" opacity="0.32"/><circle cx="101.0" cy="606.1" r="36.2" fill="none" stroke="#f2efe8" stroke-width="4.34" opacity="0.38"/><circle cx="2149.0" cy="606.1" r="36.2" fill="#5f5b52" opacity="0.32"/><circle cx="2149.0" cy="606.1" r="36.2" fill="none" stroke="#f2efe8" stroke-width="4.34" opacity="0.38"/><circle cx="374.0" cy="503.8" r="22.5" fill="#5f5b52" opacity="0.27"/><circle cx="374.0" cy="503.8" r="22.5" fill="none" stroke="#f2efe8" stroke-width="2.70" opacity="0.40"/><circle cx="560.4" cy="951.9" r="31.0" fill="#5f5b52" opacity="0.18"/><circle cx="560.4" cy="951.9" r="31.0" fill="none" stroke="#f2efe8" stroke-width="3.72" opacity="0.28"/><circle cx="309.5" cy="441.5" r="25.3" fill="#5f5b52" opacity="0.20"/><circle cx="309.5" cy="441.5" r="25.3" fill="none" stroke="#f2efe8" stroke-width="3.04" opacity="0.37"/><circle cx="1544.1" cy="716.9" r="51.0" fill="#5f5b52" opacity="0.32"/><circle cx="1544.1" cy="716.9" r="51.0" fill="none" stroke="#f2efe8" stroke-width="6.12" opacity="0.34"/><circle cx="940.2" cy="106.7" r="42.4" fill="#5f5b52" opacity="0.17"/><circle cx="940.2" cy="106.7" r="42.4" fill="none" stroke="#f2efe8" stroke-width="5.09" opacity="0.20"/><circle cx="1490.2" cy="493.8" r="24.6" fill="#5f5b52" opacity="0.22"/><circle cx="1490.2" cy="493.8" r="24.6" fill="none" stroke="#f2efe8" stroke-width="2.95" opacity="0.37"/><circle cx="66.0" cy="612.4" r="50.4" fill="#5f5b52" opacity="0.19"/><circle cx="66.0" cy="612.4" r="50.4" fill="none" stroke="#f2efe8" stroke-width="6.05" opacity="0.34"/><circle cx="2114.0" cy="612.4" r="50.4" fill="#5f5b52" opacity="0.19"/><circle cx="2114.0" cy="612.4" r="50.4" fill="none" stroke="#f2efe8" stroke-width="6.05" opacity="0.34"/><circle cx="274.5" cy="493.8" r="20.2" fill="#5f5b52" opacity="0.30"/><circle cx="274.5" cy="493.8" r="20.2" fill="none" stroke="#f2efe8" stroke-width="2.42" opacity="0.21"/><circle cx="2322.5" cy="493.8" r="20.2" fill="#5f5b52" opacity="0.30"/><circle cx="2322.5" cy="493.8" r="20.2" fill="none" stroke="#f2efe8" stroke-width="2.42" opacity="0.21"/><circle cx="1095.6" cy="214.6" r="7.0" fill="#5f5b52" opacity="0.15"/><circle cx="1095.6" cy="214.6" r="7.0" fill="none" stroke="#f2efe8" stroke-width="0.84" opacity="0.37"/><circle cx="1484.3" cy="272.4" r="28.8" fill="#5f5b52" opacity="0.26"/><circle cx="1484.3" cy="272.4" r="28.8" fill="none" stroke="#f2efe8" stroke-width="3.46" opacity="0.34"/><circle cx="1927.7" cy="492.4" r="44.3" fill="#5f5b52" opacity="0.21"/><circle cx="1927.7" cy="492.4" r="44.3" fill="none" stroke="#f2efe8" stroke-width="5.32" opacity="0.23"/><circle cx="-120.3" cy="492.4" r="44.3" fill="#5f5b52" opacity="0.21"/><circle cx="-120.3" cy="492.4" r="44.3" fill="none" stroke="#f2efe8" stroke-width="5.32" opacity="0.23"/><circle cx="765.7" cy="793.5" r="52.5" fill="#5f5b52" opacity="0.19"/><circle cx="765.7" cy="793.5" r="52.5" fill="none" stroke="#f2efe8" stroke-width="6.30" opacity="0.38"/><circle cx="636.7" cy="195.1" r="46.8" fill="#5f5b52" opacity="0.26"/><circle cx="636.7" cy="195.1" r="46.8" fill="none" stroke="#f2efe8" stroke-width="5.61" opacity="0.36"/><circle cx="1604.1" cy="868.9" r="14.4" fill="#5f5b52" opacity="0.31"/><circle cx="1604.1" cy="868.9" r="14.4" fill="none" stroke="#f2efe8" stroke-width="1.72" opacity="0.22"/></svg>